<?xml version="1.0" encoding="UTF-8"?>
<svg id="Capa_2" data-name="Capa 2" xmlns="http://www.w3.org/2000/svg" viewBox="0 0 402.19 665.26">
  <defs>
    
  </defs>
  <g id="Layer_1" data-name="Layer 1">
    <g>
      <path class="cls-1" d="M276.3,640.28c-.14-.29-.22-.5-.22-.66,0-.14-.07-.28-.21-.43-.16-.14-.22-.29-.22-.44-6.72-15.62-12.42-28.9-17.08-39.86-4.68-10.94-8.66-20.18-11.94-27.69-3.29-7.52-5.96-13.72-7.99-18.63-2.06-4.88-3.87-9.19-5.48-12.92-1.62-3.71-3.1-7.14-4.49-10.29-1.39-3.14-2.95-6.75-4.7-10.83-1.17,2.78-2.78,6.83-4.82,12.15-2.04,5.34-4.41,11.39-7.11,18.19-2.71,6.78-5.59,13.97-8.66,21.57-3.06,7.59-6.06,15.12-8.98,22.56,5.55-.15,10.66,1.17,15.33,3.94,4.82,3.21,8.81,7.63,11.95,13.25,3.14,5.63,6.09,11.5,8.87,17.63,1.9,4.23,3.9,8.54,6.03,12.92,2.11,4.38,4.62,8.32,7.54,11.83,2.92,3.5,6.36,6.39,10.29,8.65,3.95,2.27,8.55,3.39,13.8,3.39,3.07,0,5.44-.72,7.12-2.19,1.68-1.45,2.81-3.32,3.39-5.58.58-2.27.62-4.82.11-7.66-.51-2.85-1.35-5.81-2.52-8.88Z"></path>
      <path class="cls-1" d="M237.86,647.62c-3.43-5.47-6.46-11.37-9.09-17.73-2.63-6.36-5.48-12.15-8.54-17.4-3.08-5.27-6.72-9.54-10.95-12.82-4.23-3.28-9.57-4.7-15.99-4.26-1.9,4.96-3.75,9.74-5.59,14.33-1.83,4.6-3.5,8.88-5.04,12.82-1.52,3.93-2.92,7.44-4.15,10.51-1.24,3.06-2.24,5.55-2.96,7.44-2.06,5.4-2.38,10.4-.98,15,1.37,4.6,5.21,7.85,11.48,9.76h71.12c-2.61-.91-4.96-2.19-7.05-3.84-4.74-3.72-8.84-8.33-12.27-13.8Z"></path>
      <path class="cls-1" d="M0,650.01v-12.21s0,27.46,0,27.46h43.06c-4.36-.67-8.64-1.55-12.82-2.63-10.36-2.69-20.44-6.89-30.24-12.62Z"></path>
      <path class="cls-1" d="M290.49,339.86c-4.25-7.04-9.75-12.69-16.49-16.94s-14.91-6.38-24.5-6.38-17.92,2.09-24.6,6.28c-6.68,4.2-12.15,9.75-16.4,16.67-4.25,6.93-7.32,14.92-9.2,23.96-1.88,9.05-2.82,18.49-2.82,28.33s1,18.95,3,28.06c2.01,9.11,5.14,17.19,9.39,24.23,4.25,7.05,9.75,12.73,16.49,17.04s14.84,6.46,24.32,6.46,17.37-2.18,24.05-6.56c6.68-4.37,12.17-10.11,16.49-17.21,4.31-7.11,7.47-15.18,9.47-24.23s3.01-18.25,3.01-27.6-.98-18.92-2.92-27.97c-1.94-9.05-5.04-17.09-9.29-24.14Z"></path>
      <path class="cls-1" d="M281.12,233.26c2.98-1.61,5.43-3.78,7.35-6.53,1.94-2.75,2.98-6.6,3.17-11.55.18-5.22-.53-9.58-2.13-13.06-1.61-3.49-3.78-6.28-6.53-8.4-2.75-2.1-5.91-3.59-9.48-4.46-3.59-.87-7.3-1.31-11.14-1.31h-18.16v72.33c1.65-5.22,3.97-9.26,6.95-12.1,2.98-2.84,6.18-5.11,9.62-6.81,3.44-1.69,6.94-3.06,10.53-4.12,3.57-1.06,6.84-2.38,9.82-3.99Z"></path>
      <path class="cls-1" d="M201.09,0C94.76,0,7.71,82.52.49,187.02c.22.02.45.03.66.04,2.71.13,5.25.2,7.64.2,2.57,0,5.17-.07,7.84-.2,2.65-.13,6-.34,10.03-.62v1.37c-2.01,0-3.62.3-4.81.9-1.19.59-2.11,1.44-2.75,2.55-.64,1.09-1.05,2.44-1.24,4.05-.18,1.6-.28,3.37-.28,5.29v35.62h55.42v-35.2c0-2.02-.09-3.83-.27-5.43-.18-1.61-.6-2.98-1.24-4.14-.64-1.14-1.56-2.03-2.75-2.67-1.19-.64-2.8-.97-4.81-.97v-1.37c4.21.19,7.86.35,10.93.49,3.07.13,6.12.2,9.14.2,2.29,0,4.68-.05,7.16-.14,2.47-.09,5.31-.27,8.52-.55v1.37c-2.01,0-3.62.3-4.81.9-1.2.59-2.12,1.44-2.75,2.55-.65,1.09-1.05,2.44-1.24,4.05-.19,1.6-.28,3.37-.28,5.29v87.18c0,2.48.16,4.61.49,6.39.31,1.79.86,3.26,1.64,4.41.78,1.14,1.89,2.02,3.31,2.61,1.42.6,3.28.9,5.57.9v1.37c-4.59-.19-8.35-.35-11.28-.48-2.93-.14-5.64-.21-8.11-.21-2.76,0-5.6.07-8.53.21-2.93.13-6.78.29-11.54.48v-1.37c3.74,0,6.36-.81,7.83-2.41,1.46-1.61,2.38-4.05,2.75-7.36.18-.82.27-1.72.27-2.68v-52.05H17.58v50.19c0,2.48.17,4.61.49,6.39.32,1.79.87,3.26,1.66,4.41.76,1.14,1.87,2.02,3.29,2.61,1.42.6,3.28.9,5.57.9v1.37c-4.86-.19-8.78-.33-11.76-.41-2.98-.09-5.84-.14-8.59-.14-2.48,0-5.16.05-8.04.14-.07,0-.13,0-.2.01v11.47h17.57l57.21,135.55c-.49-3.52-.55-7.16-.18-10.93.85-7.89,3.28-15.3,7.28-22.22,4.01-6.93,8.44-13.91,13.31-20.96,2.91-4.37,5.85-8.83,8.83-13.39,2.98-4.55,5.71-9.35,8.2-14.39,2.49-5.04,4.61-10.41,6.38-16.12,1.76-5.71,2.94-11.85,3.55-18.41,0-2.55-.12-4.88-.37-7.01-.24-2.12-.79-3.95-1.64-5.46-.85-1.52-2.06-2.71-3.64-3.56-1.58-.85-3.7-1.27-6.38-1.27v-1.83c5.22.37,9.57.64,13.03.83,3.46.18,6.77.27,9.93.27,3.4,0,6.92-.09,10.57-.27,3.64-.19,8.26-.46,13.84-.83v1.83c-2.67,0-4.8.39-6.37,1.18-1.58.79-2.8,1.91-3.65,3.37-.85,1.46-1.39,3.25-1.64,5.38-.24,2.12-.36,4.46-.36,7.01v115.51c0,3.28.21,6.1.64,8.47.42,2.37,1.15,4.31,2.18,5.83,1.03,1.52,2.49,2.67,4.38,3.46,1.88.79,4.34,1.19,7.37,1.19v1.82c-4.25-.24-8.5-.43-12.75-.55-4.25-.12-8.32-.18-12.21-.18s-7.5.03-10.84.09c-3.34.06-6.22.15-8.65.27-2.91.13-5.53.25-7.83.37v-1.82c3.28,0,5.85-.46,7.74-1.37,1.88-.91,3.31-2.25,4.28-4.01s1.61-3.94,1.91-6.56c.3-2.61.46-5.55.46-8.83v-100.94c-1.95,8.51-4.74,16.28-8.38,23.32-3.65,7.05-7.54,13.67-11.66,19.86-4.13,6.2-8.17,12.15-12.12,17.86-3.95,5.71-7.13,11.54-9.56,17.49-2.43,5.95-3.8,12.15-4.1,18.58-.31,6.44,1.18,13.42,4.46,20.95l2.19,5.47h-25.33L.99,335.3v113.51c0,3.89.12,7.04.37,9.47.24,2.43.88,4.35,1.91,5.74,1.03,1.4,2.49,2.37,4.37,2.92,1.88.54,4.47.82,7.75.82v1.82c-3.16-.12-5.87-.21-8.11-.27-2.25-.07-4.44-.1-6.56-.1h-.72v140.26c1.24,7.83,6.77,16.72,10.98,22.82,4.16,6.01,8.86,11.62,14.58,16.69,5.1,4.52,11.98,9.09,18.48,11.78,6.49,2.71,13.76,4.05,21.79,4.05,7.15,0,13.9-.76,20.26-2.3,6.35-1.53,11.9-3.9,16.64-7.11,4.74-3.21,8.51-7.26,11.27-12.17,2.78-4.87,4.16-10.76,4.16-17.62,0-6.42-1.72-11.79-5.15-16.09-3.43-4.31-7.92-8-13.46-11.06-5.56-3.06-11.91-5.73-19.06-7.99-7.15-2.26-14.49-4.52-22.01-6.79-7.52-2.27-14.86-4.77-22.02-7.55-7.15-2.77-13.5-6.2-19.05-10.29s-10.04-9.02-13.47-14.79c-1.8-3.03-3.12-6.42-3.96-10.18v-21.98c1.04-4.49,2.81-8.53,5.29-12.08,4.3-6.21,9.92-11.24,16.85-15.12,6.93-3.86,14.79-6.68,23.54-8.44,8.77-1.76,17.67-2.63,26.72-2.63,11.97,0,23,1.24,33.07,3.73,10.07,2.48,20.29,6.27,30.65,11.39l-10.94,37.89-2.19-.22c-.3-7.15-1.8-13.82-4.48-20.03-2.71-6.21-6.33-11.54-10.85-16-4.52-4.44-9.81-7.95-15.87-10.5-6.07-2.55-12.61-3.83-19.6-3.83-6.44,0-12.57.84-18.41,2.52-5.84,1.69-11.02,4.12-15.55,7.33-4.52,3.22-8.1,7.23-10.73,12.05-2.63,4.82-3.94,10.29-3.94,16.42s1.72,10.99,5.16,15.01c3.43,4.02,7.95,7.37,13.57,10.08,5.62,2.7,12.05,5.08,19.27,7.11,7.23,2.06,14.6,4.12,22.13,6.24,7.51,2.12,14.9,4.49,22.12,7.12,7.22,2.62,13.65,5.95,19.27,9.96,5.62,4.02,10.15,8.98,13.58,14.9,3.42,5.91,5.15,13.18,5.15,21.79,0,10.08-2.12,18.55-6.35,25.41-4.24,6.87-9.93,12.38-17.08,16.53-7.15,4.16-15.45,7.13-24.87,8.88-1.75.32-3.5.61-5.28.88h63.65c4.23-2.35,7.77-5.38,10.62-9.1,2.85-3.72,5.44-8.21,7.77-13.46,11.39-28.33,21.61-54.03,30.66-77.1,3.93-9.78,7.77-19.46,11.5-29.02s7.11-18.25,10.18-26.07c3.07-7.8,5.66-14.34,7.77-19.59,2.12-5.26,3.4-8.55,3.83-9.86.14-.14.22-.29.22-.44h1.76l69.86,162.29c3.36,7.73,6.46,13.14,9.31,16.21,2.85,3.06,5.73,5.12,8.66,6.14h76.17V201.09C402.19,90.03,312.15,0,201.09,0ZM111.5,303.46v-1.37c2.29,0,4.18-.33,5.65-.97,1.46-.64,2.56-1.6,3.29-2.89.74-1.28,1.25-2.9,1.52-4.87.27-1.98.41-4.29.41-6.95v-85.39c0-2.02-.09-3.83-.28-5.43-.18-1.61-.59-2.98-1.23-4.14-.64-1.14-1.56-2.03-2.76-2.67-1.19-.64-2.79-.97-4.81-.97v-1.37h91.45v.42l4.68,25.3-1.11.41c-3.39-4.68-6.69-8.59-9.9-11.76-3.21-3.16-6.72-5.7-10.52-7.63-3.8-1.92-8.12-3.27-12.92-4.05-4.82-.78-10.43-1.18-16.84-1.18h-18.16v48.27h5.63c6.24,0,11.42-.32,15.55-.96,4.12-.65,7.53-1.67,10.24-3.1,2.7-1.41,4.83-3.35,6.39-5.77,1.56-2.43,2.89-5.43,3.99-9.01h.83v39.05h-.83c-1.65-3.39-3.3-6.27-4.95-8.66-1.64-2.38-3.73-4.33-6.25-5.84-2.53-1.51-5.75-2.62-9.7-3.31-3.94-.68-9.03-1.03-15.27-1.03h-5.63v64.36h14.85c6.24,0,11.89-.39,16.98-1.17,5.09-.78,9.76-2.16,14.03-4.13,4.27-1.96,8.22-4.65,11.89-8.04,3.66-3.39,7.25-7.66,10.73-12.79l.97.28-4.68,27.36h-93.24ZM320.1,422.03c-3.95,9.47-9.36,17.73-16.22,24.78-6.86,7.04-14.94,12.6-24.23,16.67-9.29,4.07-19.28,6.1-29.97,6.1s-21.26-2.01-30.61-6.01c-9.35-4.01-17.43-9.51-24.23-16.49-6.8-6.99-12.12-15.24-15.94-24.78-3.83-9.53-5.74-19.77-5.74-30.7s1.91-21.32,5.74-30.79c3.82-9.47,9.14-17.61,15.94-24.41,6.8-6.8,14.85-12.15,24.14-16.04,9.29-3.88,19.4-5.83,30.33-5.83s21.29,1.98,30.7,5.93c9.41,3.94,17.52,9.35,24.33,16.21,6.8,6.86,12.11,15,15.94,24.41,3.82,9.42,5.74,19.59,5.74,30.52s-1.98,20.95-5.92,30.43ZM326.02,303.46c-1.1,0-2.82-.02-5.16-.07s-4.82-.07-7.42-.07h-7.43c-2.34,0-4.06.05-5.15.14-2.3-3.48-4.87-7.59-7.71-12.3-2.84-4.73-5.96-9.98-9.34-15.75-1.93-3.3-3.88-6.62-5.85-9.97-1.98-3.34-4.15-6.58-6.54-9.7-2.1-2.65-4.28-4.58-6.53-5.77-2.24-1.2-4.42-1.79-6.52-1.79-2.3,0-4.26.64-5.92,1.93-1.65,1.28-3.05,2.89-4.19,4.81-1.15,1.93-2.04,4.01-2.69,6.26-.64,2.25-1.09,4.28-1.37,6.12v23.1c0,1.74.14,3.32.41,4.74.28,1.42.73,2.67,1.38,3.71.64,1.06,1.55,1.86,2.75,2.41,1.19.55,2.7.83,4.54.83v1.37c-4.23-.19-7.66-.33-10.31-.41-2.67-.09-5.28-.14-7.85-.14-2.29,0-4.76.05-7.42.14-2.66.08-6.05.22-10.17.41v-1.37c2.01,0,3.62-.33,4.8-.97,1.2-.64,2.11-1.53,2.76-2.68.64-1.15,1.05-2.52,1.24-4.13.18-1.6.28-3.41.28-5.42v-85.4c0-2.65-.14-4.97-.42-6.94-.27-1.98-.78-3.6-1.52-4.89-.73-1.28-1.82-2.24-3.29-2.88-1.47-.64-3.35-.97-5.64-.97v-1.37h51.7c6.14,0,11.78.44,16.91,1.3,5.13.88,9.56,2.41,13.27,4.61s6.58,5.16,8.6,8.87c2.01,3.71,3.03,8.37,3.03,13.96,0,4.13-.61,7.54-1.79,10.24-1.19,2.71-2.8,4.95-4.82,6.74-2.02,1.79-4.38,3.19-7.08,4.2-2.7,1.01-5.6,1.83-8.66,2.47-3.07.64-6.21,1.24-9.42,1.78-3.21.56-6.37,1.2-9.49,1.93,2.29,0,4.68.37,7.15,1.1,2.48.74,4.98,1.95,7.49,3.64,2.53,1.7,5.07,3.99,7.64,6.88,2.57,2.89,5.08,6.45,7.56,10.66,2.66,4.68,5.36,9.06,8.11,13.13,2.75,4.08,5.37,7.77,7.83,11.07,2.48,3.3,4.78,6.07,6.88,8.32,2.11,2.25,3.9,3.83,5.37,4.75v1.37Z"></path>
    </g>
  </g>
</svg>