<?xml version="1.0" encoding="UTF-8"?>
<svg id="Capa_2" data-name="Capa 2" xmlns="http://www.w3.org/2000/svg" viewBox="0 0 799.29 419.62">
  <g id="Layer_1" data-name="Layer 1">
    <g>
      <path d="M455.18,369.7c-1.41-.59-2.5-1.45-3.27-2.59s-1.32-2.59-1.63-4.36c-.32-1.77-.48-3.89-.48-6.34v-86.42c0-1.91.09-3.66.27-5.25.18-1.59.59-2.93,1.23-4.02.63-1.09,1.54-1.93,2.72-2.52,1.18-.59,2.78-.89,4.78-.89v-1.36c-4.19.27-7.64.48-10.36.61-2.73.14-5.37.21-7.91.21-2.36,0-4.84-.07-7.43-.21-2.59-.13-5.84-.34-9.75-.61v1.36c2,0,3.59.32,4.78.96,1.18.63,2.09,1.52,2.72,2.66.64,1.13,1.05,2.5,1.23,4.08.18,1.6.27,3.34.27,5.25-.45,4.91-1.34,9.5-2.66,13.77-1.31,4.27-2.91,8.29-4.77,12.06-1.86,3.77-3.91,7.36-6.13,10.77-2.23,3.41-4.43,6.75-6.61,10.02-3.64,5.27-6.95,10.5-9.95,15.68-3,5.17-4.82,10.72-5.46,16.62-.27,2.82-.22,5.55.14,8.18l-42.8-101.41h-18.95l5.05,12v88.46c0,2.45-.12,4.59-.34,6.41-.23,1.81-.71,3.29-1.44,4.43-.72,1.13-1.79,1.97-3.2,2.52-1.41.54-3.34.82-5.79.82v1.36c2.72-.09,5.02-.16,6.88-.21,1.86-.04,3.59-.06,5.18-.06s3.23.02,4.91.06c1.68.05,3.7.12,6.06.21v-1.36c-2.45,0-4.38-.21-5.79-.62s-2.5-1.13-3.27-2.18c-.77-1.04-1.25-2.47-1.43-4.29-.18-1.82-.27-4.18-.27-7.09v-84.92l42.39,100.46h18.95l-1.64-4.09c-2.45-5.63-3.57-10.86-3.34-15.68.23-4.81,1.25-9.45,3.07-13.9,1.81-4.45,4.2-8.81,7.15-13.09,2.95-4.27,5.98-8.72,9.07-13.35,3.09-4.64,5.99-9.59,8.72-14.86s4.82-11.09,6.27-17.45v75.52c0,2.45-.11,4.65-.34,6.61-.23,1.95-.7,3.59-1.43,4.9-.73,1.32-1.8,2.32-3.2,3-1.41.68-3.34,1.03-5.8,1.03v1.36c1.73-.09,3.68-.18,5.86-.27,1.82-.09,3.98-.16,6.48-.21,2.5-.04,5.2-.07,8.11-.07s5.95.05,9.13.14c3.18.09,6.36.23,9.54.41v-1.36c-2.27,0-4.11-.3-5.52-.89Z" fill="#a55d71"></path>
      <path d="M580.58,290.78c-2.86-7.04-6.83-13.13-11.92-18.27-5.09-5.13-11.16-9.18-18.2-12.13-7.04-2.95-14.7-4.43-22.97-4.43s-15.74,1.45-22.69,4.36c-6.95,2.91-12.98,6.91-18.06,12-5.09,5.09-9.07,11.17-11.93,18.26-2.86,7.09-4.29,14.77-4.29,23.04s1.43,15.83,4.29,22.97c2.86,7.13,6.84,13.31,11.93,18.53,5.08,5.23,11.13,9.34,18.13,12.34,6.99,3,14.63,4.5,22.89,4.5s15.48-1.52,22.43-4.57c6.95-3.04,12.99-7.2,18.13-12.47,5.13-5.27,9.17-11.45,12.13-18.54,2.95-7.09,4.43-14.67,4.43-22.76s-1.43-15.79-4.3-22.83ZM565.18,334.53c-1.5,6.77-3.86,12.81-7.09,18.13-3.22,5.32-7.34,9.61-12.33,12.88-5,3.27-11,4.91-18,4.91s-13.15-1.61-18.19-4.84c-5.05-3.22-9.16-7.47-12.34-12.74-3.18-5.27-5.52-11.32-7.02-18.13-1.5-6.82-2.25-13.82-2.25-21s.71-14.42,2.12-21.19c1.4-6.77,3.7-12.75,6.88-17.93,3.18-5.18,7.27-9.33,12.27-12.47,4.99-3.13,11.13-4.7,18.4-4.7s13.29,1.59,18.33,4.77c5.05,3.18,9.16,7.41,12.34,12.68,3.18,5.27,5.5,11.29,6.95,18.06,1.45,6.77,2.18,13.74,2.18,20.92s-.75,13.88-2.25,20.65Z" fill="#a55d71"></path>
      <path d="M682.68,325.13c-2.14-3.68-4.96-6.77-8.45-9.27-3.5-2.5-7.5-4.57-12-6.2-4.5-1.64-9.09-3.12-13.76-4.43-4.69-1.32-9.27-2.62-13.77-3.89s-8.5-2.75-12-4.43-6.31-3.77-8.45-6.27c-2.13-2.5-3.2-5.61-3.2-9.34s.82-7.22,2.45-10.22c1.64-3,3.86-5.5,6.68-7.5,2.82-1.99,6.04-3.52,9.68-4.56,3.63-1.05,7.45-1.57,11.45-1.57,4.36,0,8.43.8,12.2,2.39,3.77,1.59,7.06,3.77,9.88,6.54,2.82,2.77,5.07,6.09,6.75,9.95,1.68,3.86,2.61,8.02,2.79,12.47l1.37.14,6.81-23.58c-6.45-3.18-12.81-5.55-19.08-7.09-6.27-1.55-13.13-2.32-20.58-2.32-5.64,0-11.18.55-16.63,1.64-5.46,1.09-10.34,2.84-14.66,5.24-4.31,2.41-7.81,5.55-10.49,9.41-2.68,3.86-4.02,8.61-4.02,14.24,0,5.27,1.06,9.7,3.2,13.29,2.13,3.59,4.93,6.66,8.38,9.2,3.45,2.55,7.41,4.69,11.86,6.41,4.45,1.73,9.02,3.3,13.7,4.7,4.68,1.41,9.25,2.82,13.7,4.23,4.45,1.41,8.4,3.07,11.86,4.97,3.45,1.91,6.24,4.21,8.38,6.89,2.13,2.68,3.2,6.02,3.2,10.02,0,4.27-.86,7.93-2.59,10.97-1.72,3.04-4.06,5.57-7.02,7.56-2.95,2-6.4,3.48-10.36,4.43-3.95.96-8.15,1.44-12.6,1.44-5,0-9.52-.84-13.57-2.53-4.04-1.68-7.56-4.02-10.56-7.02-3-2.99-5.45-6.56-7.36-10.7-1.91-4.13-3.23-8.65-3.95-13.56l-1.09-.14-6.14,23.72c6.63,4.09,13.47,7.05,20.52,8.86,7.04,1.82,14.47,2.73,22.28,2.73,6.36,0,12.47-.55,18.34-1.64,5.86-1.09,11.01-2.93,15.47-5.52,4.45-2.59,7.99-6.02,10.63-10.29,2.63-4.27,3.95-9.54,3.95-15.81,0-5.36-1.07-9.88-3.2-13.56Z" fill="#a55d71"></path>
      <path d="M793.91,367.04c-1.78-1.91-3.71-5.27-5.8-10.09l-43.48-101h-1.09c0,.09-.05.18-.14.27-.27.82-1.07,2.87-2.38,6.14-1.32,3.27-2.93,7.34-4.84,12.2-1.91,4.86-4.02,10.27-6.34,16.22-2.32,5.95-4.7,11.97-7.16,18.06-5.63,14.36-11.99,30.35-19.08,47.98-1.45,3.27-3.07,6.06-4.84,8.38s-3.97,4.21-6.61,5.66v1.09c2.18-.18,4.09-.32,5.73-.41,1.63-.09,3.31-.14,5.04-.14,1.27,0,2.63.05,4.09.14,1.45.09,3.18.23,5.18.41v-1.09c-3.91-1.18-6.3-3.21-7.16-6.07s-.66-5.97.62-9.33c.45-1.18,1.06-2.73,1.84-4.64.77-1.91,1.63-4.09,2.59-6.54.95-2.46,1.99-5.11,3.13-7.98,1.14-2.86,2.3-5.83,3.48-8.92,3.99-.28,7.31.61,9.95,2.65,2.63,2.05,4.9,4.71,6.81,7.98,1.91,3.27,3.68,6.88,5.32,10.83,1.63,3.96,3.52,7.64,5.66,11.04,2.13,3.41,4.67,6.28,7.63,8.59,2.95,2.32,6.7,3.48,11.24,3.48,3.82-.27,7.18-.46,10.09-.55,2.91-.09,5.68-.13,8.32-.13s5.33.04,8.11.13c2.77.09,5.93.28,9.47.55v-1.09c-1.82-.64-3.61-1.91-5.38-3.82ZM769.85,365.61c-.37,1.41-1.07,2.57-2.12,3.48-1.04.91-2.52,1.36-4.43,1.36-3.27,0-6.13-.7-8.58-2.11-2.46-1.41-4.59-3.21-6.41-5.39-1.82-2.18-3.39-4.63-4.7-7.36-1.32-2.72-2.57-5.4-3.75-8.04-1.73-3.82-3.57-7.47-5.52-10.97-1.96-3.5-4.43-6.25-7.43-8.25-2.91-1.73-6.09-2.54-9.54-2.45,1.81-4.64,3.68-9.32,5.59-14.04,1.91-4.73,3.7-9.2,5.38-13.43,1.68-4.23,3.16-8,4.43-11.31,1.27-3.32,2.27-5.84,3-7.57,1.09,2.55,2.07,4.8,2.93,6.75s1.79,4.09,2.8,6.41c.99,2.31,2.13,4.99,3.4,8.04,1.27,3.04,2.93,6.9,4.98,11.58,2.04,4.68,4.52,10.43,7.43,17.25,2.9,6.81,6.45,15.08,10.63,24.8,0,.1.04.19.14.28.08.09.13.18.13.27s.05.23.14.41c.72,1.91,1.25,3.75,1.57,5.52.31,1.77.29,3.36-.07,4.77Z" fill="#a55d71"></path>
      <g>
        <path d="M72.09,362.24c.18-.82.27-1.71.27-2.66v-51.59H17.43v49.75c0,2.45.16,4.57.48,6.34.31,1.77.86,3.22,1.63,4.36.77,1.14,1.86,2,3.27,2.59,1.13.47,2.53.76,4.22.85h35.91c3.01-.17,5.15-.96,6.42-2.35,1.46-1.59,2.37-4.02,2.73-7.29Z" fill="#a55d71"></path>
        <path d="M117.07,227.28c-.06-.12-.09-.23-.09-.28,0-.07-.03-.12-.1-.19-.06-.07-.09-.12-.09-.19-.67-1.52-1.31-2.99-1.93-4.42-2.14-4.93-4.01-9.25-5.61-12.96-2.06-4.78-3.82-8.81-5.26-12.09-1.46-3.29-2.63-5.99-3.53-8.13-.91-2.13-1.71-4-2.42-5.64-.71-1.62-1.36-3.12-1.97-4.49-.62-1.37-1.31-2.95-2.09-4.73-.52,1.21-1.21,2.98-2.12,5.31s-1.95,4.97-3.14,7.93c-1.19,2.96-2.46,6.1-3.82,9.41-1.35,3.31-2.67,6.6-3.95,9.84,2.44-.07,4.7.51,6.76,1.72,2.12,1.39,3.87,3.32,5.26,5.77.81,1.44,1.59,2.91,2.35,4.42h0c.53,1.09,1.06,2.17,1.56,3.28.84,1.85,1.72,3.72,2.66,5.64.93,1.9,2.04,3.63,3.34,5.16,1.28,1.53,2.8,2.79,4.54,3.78,1.73.99,3.76,1.47,6.09,1.47,1.34,0,2.4-.32,3.13-.95.75-.63,1.24-1.45,1.5-2.44.25-.99.27-2.1.05-3.34-.23-1.24-.6-2.53-1.11-3.87Z" fill="#a55d71"></path>
        <path d="M317.85,365.88c-2.09-2.22-4.36-4.97-6.81-8.24-2.46-3.28-5.05-6.93-7.77-10.98-2.73-4.04-5.41-8.38-8.04-13.01-2.46-4.18-4.96-7.71-7.5-10.57-2.55-2.86-5.07-5.13-7.57-6.81s-4.97-2.89-7.43-3.62c-2.45-.72-4.81-1.09-7.08-1.09,3.08-.72,6.22-1.36,9.4-1.9,3.18-.55,6.29-1.14,9.34-1.78,3.04-.63,5.91-1.45,8.59-2.45,2.68-1,5.02-2.39,7.02-4.16,1.99-1.77,3.59-3.99,4.77-6.68,1.18-2.68,1.77-6.06,1.77-10.15,0-5.54-1-10.16-3-13.84s-4.84-6.61-8.52-8.79c-3.68-2.18-8.06-3.7-13.15-4.56-5.09-.87-10.68-1.3-16.77-1.3h-40.27V112.41c0-31.04-12.58-59.14-32.93-79.48C171.56,12.58,143.45,0,112.41,0,50.33,0,0,50.33,0,112.41v45.55c.07,0,.14.01.2.01,2.05.09,4.02.15,5.89.15s3.86-.06,5.98-.15c1.26-.06,2.72-.12,4.36-.19,1.14-.05,2.35-.09,3.66-.15v.96c-1.16,0-2.17.1-3.02.32-.32.09-.62.18-.89.29-1,.42-1.77,1.02-2.32,1.83-.55.79-.94,1.81-1.16,3.05-.23,1.25-.34,2.72-.34,4.44v69.36h12.76c4.51,0,8.45-.26,11.83-.8,3.38-.54,6.41-1.49,9.08-2.82,2.67-1.34,5.14-3.11,7.38-5.3,2.26-2.2,4.57-4.92,6.96-8.17.07,0,.16.03.29.1.14.06.22.1.25.14.02.03.1.08.24.15l-3.29,17.48v.28H0v18.89c.4.02.77.04,1.14.06,2.68.14,5.2.21,7.57.21,2.54,0,5.13-.07,7.77-.21,2.63-.13,5.95-.34,9.95-.61v1.36c-2,0-3.59.3-4.77.89-1.19.59-2.1,1.43-2.73,2.52-.64,1.09-1.05,2.43-1.23,4.02-.18,1.59-.27,3.34-.27,5.25v35.3h54.93v-34.89c0-2-.09-3.79-.27-5.39-.18-1.58-.59-2.95-1.23-4.08-.63-1.14-1.54-2.03-2.72-2.66-1.18-.64-2.78-.96-4.77-.96v-1.36c4.18.18,7.79.34,10.83.48,3.05.13,6.07.2,9.07.2,2.27,0,4.63-.04,7.09-.13,2.45-.09,5.27-.28,8.45-.55v1.36c-2,0-3.59.3-4.77.89-1.19.59-2.1,1.43-2.73,2.52-.64,1.09-1.05,2.43-1.23,4.02-.18,1.59-.27,3.34-.27,5.25v86.42c0,2.45.16,4.57.48,6.34.31,1.77.86,3.22,1.63,4.36.77,1.14,1.86,2,3.27,2.59,1.13.47,2.53.76,4.22.85h12.43c1.69-.1,3.11-.41,4.28-.92,1.45-.63,2.54-1.59,3.27-2.86s1.23-2.89,1.5-4.84c.27-1.95.41-4.25.41-6.88v-84.65c0-2-.09-3.79-.28-5.39-.18-1.58-.59-2.95-1.22-4.08-.64-1.14-1.55-2.03-2.73-2.66-1.18-.64-2.77-.96-4.77-.96v-1.36h90.65v.41l4.63,25.08-1.09.41c-3.36-4.64-6.63-8.52-9.81-11.66-3.19-3.13-6.66-5.65-10.43-7.56-3.77-1.91-8.04-3.25-12.81-4.02-4.77-.77-10.34-1.16-16.7-1.16h-17.99v47.84h5.58c6.18,0,11.32-.31,15.41-.95,4.09-.64,7.47-1.66,10.15-3.07,2.68-1.41,4.79-3.31,6.34-5.72,1.54-2.41,2.86-5.39,3.95-8.93h.82v38.71h-.82c-1.63-3.36-3.27-6.22-4.9-8.59-1.64-2.36-3.71-4.29-6.21-5.79s-5.7-2.59-9.61-3.27c-3.9-.68-8.95-1.02-15.13-1.02h-5.58v63.79h14.72c6.17,0,11.79-.39,16.83-1.16,5.04-.77,9.68-2.13,13.9-4.09,4.23-1.95,8.16-4.61,11.79-7.97,3.64-3.36,7.18-7.59,10.64-12.68l.95.27-4.39,25.73h47.87v-1.29c-1.82,0-3.32-.28-4.5-.82-1.18-.55-2.09-1.34-2.72-2.39-.64-1.04-1.09-2.27-1.37-3.68-.27-1.41-.4-2.97-.4-4.7v-22.9c.27-1.82.72-3.84,1.36-6.07.63-2.22,1.52-4.29,2.66-6.2,1.13-1.91,2.52-3.5,4.15-4.77,1.64-1.27,3.59-1.91,5.87-1.91,2.08,0,4.24.59,6.47,1.77,2.23,1.19,4.38,3.09,6.48,5.73,2.36,3.09,4.51,6.29,6.47,9.61,1.95,3.32,3.88,6.61,5.79,9.88,3.36,5.73,6.45,10.93,9.27,15.61,2.82,4.68,5.36,8.75,7.63,12.2,1.09-.09,2.8-.14,5.12-.14h7.36c2.59,0,5.04.03,7.36.07,2.31.05,4.02.07,5.11.07v-1.36c-1.46-.91-3.23-2.48-5.32-4.71ZM139,238.94c-2.51-.19-4.75-.32-6.72-.39-1.96-.06-3.87-.09-5.74-.09s-3.83.03-5.89.09c-2.06.07-4.45.19-7.14.39-3.22,0-5.88-.82-7.98-2.44-2.09-1.62-3.9-3.63-5.41-6.02-1.51-2.38-2.84-4.97-4-7.73-.67-1.59-1.36-3.1-2.09-4.52-.55-1.07-1.11-2.1-1.69-3.07-1.35-2.29-2.96-4.16-4.83-5.59-1.87-1.43-4.22-2.05-7.05-1.86-.68,1.76-1.35,3.46-2.01,5.11-.16.39-.31.77-.46,1.15-.8,2.01-1.55,3.87-2.22,5.59-.68,1.71-1.28,3.24-1.83,4.58s-.99,2.43-1.31,3.24c-.91,2.36-1.04,4.55-.44,6.55.62,2.01,2.3,3.42,5.08,4.25v.76c-1.42-.12-2.65-.23-3.67-.28-1.03-.07-2.01-.1-2.9-.1-1.23,0-2.42.03-3.58.1-1.16.06-2.51.16-4.06.28v-.76c1.87-1.02,3.43-2.35,4.69-3.97,1.25-1.62,2.4-3.58,3.43-5.87,2.25-5.52,4.39-10.82,6.42-15.88,2.52-6.27,4.9-12.18,7.1-17.74,1.74-4.27,3.44-8.49,5.08-12.66,1.64-4.17,3.14-7.96,4.49-11.36,1.35-3.41,2.49-6.26,3.43-8.56.93-2.29,1.49-3.72,1.69-4.3.07-.06.1-.12.1-.19h.77l28.43,65.31,2.38,5.49c1.48,3.38,2.85,5.74,4.1,7.08,1.26,1.34,2.53,2.22,3.82,2.68v.76ZM258.49,310.41c-3.41,1.68-6.59,3.93-9.54,6.74-2.95,2.82-5.25,6.82-6.88,12v-71.7h17.99c3.82,0,7.5.43,11.04,1.29,3.54.87,6.68,2.35,9.4,4.43,2.73,2.1,4.89,4.87,6.48,8.32,1.59,3.45,2.29,7.77,2.11,12.95-.18,4.91-1.22,8.72-3.13,11.45-1.91,2.72-4.34,4.88-7.3,6.47-2.95,1.59-6.2,2.91-9.74,3.96-3.55,1.04-7.02,2.4-10.43,4.09Z" fill="#a55d71"></path>
      </g>
      <text transform="translate(637.02 412.35)" fill="#a55d71" font-family="against-Regular, against" font-size="28.18"><tspan x="0" y="0">estd. 1999</tspan></text>
    </g>
  </g>
</svg>